<svg width="3240" height="382" viewBox="0 0 3240 382" fill="none" xmlns="http://www.w3.org/2000/svg">
<path d="M2916.88 14.1934H3219.27V100.663H3212.69C3211.01 94.9316 3208.14 87.6837 3204.1 78.9188C3200.05 69.8168 3194.32 61.0519 3186.9 52.6241C3179.83 44.1963 3170.55 36.9484 3159.09 30.8804C3147.63 24.4753 3133.64 21.2727 3117.12 21.2727H3036.72V177.524H3065.04C3077.51 177.524 3087.96 175.839 3096.39 172.467C3105.15 168.759 3112.4 163.702 3118.13 157.297C3123.86 150.555 3128.58 142.633 3132.29 133.531C3136 124.092 3139.03 113.641 3141.39 102.18H3147.97V259.442H3141.39C3139.03 249.666 3136.17 240.227 3132.8 231.125C3129.76 222.023 3125.55 214.101 3120.16 207.358C3114.76 200.279 3108.02 194.717 3099.93 190.671C3092.18 186.626 3082.4 184.603 3070.6 184.603H3036.72V367.15H3119.65C3135.16 367.15 3149.15 364.621 3161.62 359.565C3174.09 354.171 3185.05 346.754 3194.49 337.315C3204.27 327.876 3212.36 316.92 3218.76 304.447C3225.17 291.636 3230.05 277.983 3233.43 263.488H3240V374.229H2916.88V367.15H2963.4V21.2727H2916.88V14.1934Z" fill="black"/>
<path d="M2683.22 21.2727H2665.02C2652.54 21.2727 2641.42 22.6212 2631.64 25.318C2621.87 27.6778 2613.1 32.0603 2605.35 38.4654C2597.59 44.5334 2590.68 53.1298 2584.61 64.2545C2578.55 75.3791 2572.98 89.5379 2567.93 106.731H2561.35V14.1934H2878.41V106.731H2871.83C2866.78 89.5379 2861.22 75.3791 2855.15 64.2545C2849.08 53.1298 2842.17 44.5334 2834.41 38.4654C2826.66 32.0603 2817.9 27.6778 2808.12 25.318C2798.34 22.6212 2787.22 21.2727 2774.75 21.2727H2756.54V367.15H2803.06V374.229H2636.7V367.15H2683.22V21.2727Z" fill="black"/>
<path d="M2326.68 21.2727H2308.48C2296.01 21.2727 2284.88 22.6212 2275.11 25.318C2265.33 27.6778 2256.57 32.0603 2248.81 38.4654C2241.06 44.5334 2234.15 53.1298 2228.08 64.2545C2222.01 75.3791 2216.45 89.5379 2211.39 106.731H2204.82V14.1934H2521.87V106.731H2515.3C2510.24 89.5379 2504.68 75.3791 2498.61 64.2545C2492.54 53.1298 2485.63 44.5334 2477.88 38.4654C2470.13 32.0603 2461.36 27.6778 2451.58 25.318C2441.81 22.6212 2430.68 21.2727 2418.21 21.2727H2400.01V367.15H2446.53V374.229H2280.16V367.15H2326.68V21.2727Z" fill="black"/>
<path d="M1838.88 14.1934H2141.27V100.663H2134.69C2133.01 94.9316 2130.14 87.6837 2126.1 78.9188C2122.05 69.8168 2116.32 61.0519 2108.9 52.6241C2101.82 44.1963 2092.55 36.9484 2081.09 30.8804C2069.63 24.4753 2055.64 21.2727 2039.12 21.2727H1958.72V177.524H1987.04C1999.51 177.524 2009.96 175.839 2018.39 172.467C2027.15 168.759 2034.4 163.702 2040.13 157.297C2045.86 150.555 2050.58 142.633 2054.29 133.531C2058 124.092 2061.03 113.641 2063.39 102.18H2069.97V259.442H2063.39C2061.03 249.666 2058.17 240.227 2054.8 231.125C2051.76 222.023 2047.55 214.101 2042.16 207.358C2036.76 200.279 2030.02 194.717 2021.93 190.671C2014.18 186.626 2004.4 184.603 1992.6 184.603H1958.72V367.15H2041.65C2057.16 367.15 2071.15 364.621 2083.62 359.565C2096.09 354.171 2107.05 346.754 2116.49 337.315C2126.27 327.876 2134.36 316.92 2140.76 304.447C2147.17 291.636 2152.05 277.983 2155.43 263.488H2162V374.229H1838.88V367.15H1885.4V21.2727H1838.88V14.1934Z" fill="black"/>
<path d="M1694.47 21.2727H1624.19C1610.7 21.2727 1598.9 23.1268 1588.79 26.835C1578.68 30.5433 1569.74 35.7685 1561.99 42.5108C1554.57 49.253 1548 57.3437 1542.27 66.7828C1536.54 76.2219 1531.14 86.841 1526.09 98.6399H1519.51V14.1934H1781.45L1577.16 367.15H1668.68C1682.17 367.15 1695.15 365.295 1707.62 361.587C1720.09 357.879 1731.56 351.811 1742.01 343.383C1752.79 334.618 1762.06 323.494 1769.82 310.009C1777.91 296.187 1784.15 279.5 1788.53 259.948H1795.1V374.229H1491.2L1694.47 21.2727Z" fill="black"/>
<path d="M1243.52 86.5034L1186.89 224.551H1303.19L1243.52 86.5034ZM1077.67 367.149H1120.14L1270.83 0.0341797H1284.48L1443.77 367.149H1487.26V374.228H1317.35V367.149H1364.38L1305.72 231.63H1184.36L1128.23 367.149H1173.24V374.228H1077.67V367.149Z" fill="black"/>
<path d="M1057.6 117.349H1051.03C1047.32 106.225 1042.77 94.5944 1037.37 82.4584C1032.32 69.9853 1025.58 58.692 1017.15 48.5786C1009.06 38.1282 998.775 29.7004 986.302 23.2953C974.166 16.553 958.996 13.1819 940.791 13.1819C916.182 13.1819 896.798 17.7329 882.64 26.8349C868.481 35.937 857.693 48.5786 850.277 64.76C843.198 80.9414 838.647 100.325 836.624 122.912C834.601 145.161 833.59 169.602 833.59 196.234C833.59 231.293 835.613 260.285 839.658 283.209C843.703 306.132 849.94 324.336 858.368 337.821C867.133 351.305 878.257 360.744 891.742 366.138C905.563 371.532 921.913 374.229 940.791 374.229C955.961 374.229 969.615 371.195 981.751 365.127C994.224 359.059 1005.18 351.137 1014.62 341.36C1024.06 331.247 1031.98 319.785 1038.39 306.975C1044.79 294.165 1049.51 280.849 1052.54 267.027H1060.63V374.229H1052.54C1050.86 370.183 1048.84 367.487 1046.48 366.138C1044.12 364.453 1040.58 363.61 1035.86 363.61C1031.81 363.61 1026.59 364.621 1020.18 366.644C1013.78 368.329 1006.36 370.352 997.932 372.712C989.841 374.734 980.908 376.589 971.132 378.274C961.355 380.297 951.073 381.308 940.286 381.308C915.677 381.308 891.91 376.589 868.987 367.149C846.063 357.373 825.836 344.226 808.307 327.707C791.114 310.852 777.292 291.131 766.842 268.544C756.391 245.958 751.166 221.517 751.166 195.222C751.166 166.568 756.897 140.61 768.359 117.349C780.158 94.0888 795.159 74.1992 813.363 57.6807C831.567 41.1622 851.794 28.5205 874.043 19.7556C896.63 10.6536 918.711 6.10254 940.286 6.10254C951.073 6.10254 961.018 7.11387 970.12 9.13654C979.559 11.1592 988.156 13.3505 995.909 15.7102C1004 17.7329 1011.25 19.7556 1017.65 21.7782C1024.06 23.8009 1029.45 24.8122 1033.83 24.8122C1038.55 24.8122 1042.09 24.3066 1044.45 23.2953C1046.81 21.9468 1048.5 18.9128 1049.51 14.1932H1057.6V117.349Z" fill="black"/>
<path d="M494.899 86.5034L438.264 224.551H554.568L494.899 86.5034ZM329.04 367.149H371.516L522.205 0.0341797H535.858L695.143 367.149H738.631V374.228H568.726V367.149H615.753L557.096 231.63H435.736L379.607 367.149H424.611V374.228H329.04V367.149Z" fill="black"/>
<path d="M0.0119629 14.1934H166.377V21.2727H119.855V367.15H203.29C214.415 367.15 225.54 365.295 236.665 361.587C248.126 357.879 258.745 351.811 268.522 343.383C278.635 334.618 287.568 323.494 295.322 310.009C303.413 296.187 309.649 279.5 314.032 259.948H320.605V374.229H0.0119629V367.15H46.5334V21.2727H0.0119629V14.1934Z" fill="black"/>
</svg>
